solid OpenSCAD_Model
  facet normal -1 0 0
    outer loop
      vertex -83.5 -83.5 0
      vertex -83.5 -63.5 0.0999994
      vertex -83.5 -63.5 0
    endloop
  endfacet
  facet normal -1 -0 0
    outer loop
      vertex -83.5 -63.5 0.0999994
      vertex -83.5 -83.5 0
      vertex -83.5 -83.5 0.0999994
    endloop
  endfacet
  facet normal -0 0 1
    outer loop
      vertex -83.5 -63.5 0.0999994
      vertex -63.5 -83.5 0.0999994
      vertex -63.5 -63.5 0.0999994
    endloop
  endfacet
  facet normal 0 0 1
    outer loop
      vertex -63.5 -83.5 0.0999994
      vertex -83.5 -63.5 0.0999994
      vertex -83.5 -83.5 0.0999994
    endloop
  endfacet
  facet normal 1 -0 0
    outer loop
      vertex -63.5 -83.5 0.0999994
      vertex -63.5 -63.5 0
      vertex -63.5 -63.5 0.0999994
    endloop
  endfacet
  facet normal 1 0 0
    outer loop
      vertex -63.5 -63.5 0
      vertex -63.5 -83.5 0.0999994
      vertex -63.5 -83.5 0
    endloop
  endfacet
  facet normal 0 1 -0
    outer loop
      vertex -63.5 -63.5 0
      vertex -83.5 -63.5 0.0999994
      vertex -63.5 -63.5 0.0999994
    endloop
  endfacet
  facet normal 0 1 0
    outer loop
      vertex -83.5 -63.5 0.0999994
      vertex -63.5 -63.5 0
      vertex -83.5 -63.5 0
    endloop
  endfacet
  facet normal 0 0 -1
    outer loop
      vertex -83.5 -83.5 0
      vertex -63.5 -63.5 0
      vertex -63.5 -83.5 0
    endloop
  endfacet
  facet normal -0 0 -1
    outer loop
      vertex -63.5 -63.5 0
      vertex -83.5 -83.5 0
      vertex -83.5 -63.5 0
    endloop
  endfacet
  facet normal 0 -1 0
    outer loop
      vertex -83.5 -83.5 0
      vertex -63.5 -83.5 0.0999994
      vertex -83.5 -83.5 0.0999994
    endloop
  endfacet
  facet normal 0 -1 -0
    outer loop
      vertex -63.5 -83.5 0.0999994
      vertex -83.5 -83.5 0
      vertex -63.5 -83.5 0
    endloop
  endfacet
  facet normal -1 0 0
    outer loop
      vertex -8.5 -83.5 0
      vertex -8.5 -63.5 0.0999994
      vertex -8.5 -63.5 0
    endloop
  endfacet
  facet normal -1 -0 0
    outer loop
      vertex -8.5 -63.5 0.0999994
      vertex -8.5 -83.5 0
      vertex -8.5 -83.5 0.0999994
    endloop
  endfacet
  facet normal -0 0 1
    outer loop
      vertex -8.5 -63.5 0.0999994
      vertex 11.5 -83.5 0.0999994
      vertex 11.5 -63.5 0.0999994
    endloop
  endfacet
  facet normal 0 0 1
    outer loop
      vertex 11.5 -83.5 0.0999994
      vertex -8.5 -63.5 0.0999994
      vertex -8.5 -83.5 0.0999994
    endloop
  endfacet
  facet normal 1 -0 0
    outer loop
      vertex 11.5 -83.5 0.0999994
      vertex 11.5 -63.5 0
      vertex 11.5 -63.5 0.0999994
    endloop
  endfacet
  facet normal 1 0 0
    outer loop
      vertex 11.5 -63.5 0
      vertex 11.5 -83.5 0.0999994
      vertex 11.5 -83.5 0
    endloop
  endfacet
  facet normal 0 1 -0
    outer loop
      vertex 11.5 -63.5 0
      vertex -8.5 -63.5 0.0999994
      vertex 11.5 -63.5 0.0999994
    endloop
  endfacet
  facet normal 0 1 0
    outer loop
      vertex -8.5 -63.5 0.0999994
      vertex 11.5 -63.5 0
      vertex -8.5 -63.5 0
    endloop
  endfacet
  facet normal 0 0 -1
    outer loop
      vertex -8.5 -83.5 0
      vertex 11.5 -63.5 0
      vertex 11.5 -83.5 0
    endloop
  endfacet
  facet normal -0 0 -1
    outer loop
      vertex 11.5 -63.5 0
      vertex -8.5 -83.5 0
      vertex -8.5 -63.5 0
    endloop
  endfacet
  facet normal 0 -1 0
    outer loop
      vertex -8.5 -83.5 0
      vertex 11.5 -83.5 0.0999994
      vertex -8.5 -83.5 0.0999994
    endloop
  endfacet
  facet normal 0 -1 -0
    outer loop
      vertex 11.5 -83.5 0.0999994
      vertex -8.5 -83.5 0
      vertex 11.5 -83.5 0
    endloop
  endfacet
  facet normal -1 0 0
    outer loop
      vertex 66.5 -83.5 0
      vertex 66.5 -63.5 0.0999994
      vertex 66.5 -63.5 0
    endloop
  endfacet
  facet normal -1 -0 0
    outer loop
      vertex 66.5 -63.5 0.0999994
      vertex 66.5 -83.5 0
      vertex 66.5 -83.5 0.0999994
    endloop
  endfacet
  facet normal -0 0 1
    outer loop
      vertex 66.5 -63.5 0.0999994
      vertex 86.5 -83.5 0.0999994
      vertex 86.5 -63.5 0.0999994
    endloop
  endfacet
  facet normal 0 0 1
    outer loop
      vertex 86.5 -83.5 0.0999994
      vertex 66.5 -63.5 0.0999994
      vertex 66.5 -83.5 0.0999994
    endloop
  endfacet
  facet normal 1 -0 0
    outer loop
      vertex 86.5 -83.5 0.0999994
      vertex 86.5 -63.5 0
      vertex 86.5 -63.5 0.0999994
    endloop
  endfacet
  facet normal 1 0 0
    outer loop
      vertex 86.5 -63.5 0
      vertex 86.5 -83.5 0.0999994
      vertex 86.5 -83.5 0
    endloop
  endfacet
  facet normal 0 1 -0
    outer loop
      vertex 86.5 -63.5 0
      vertex 66.5 -63.5 0.0999994
      vertex 86.5 -63.5 0.0999994
    endloop
  endfacet
  facet normal 0 1 0
    outer loop
      vertex 66.5 -63.5 0.0999994
      vertex 86.5 -63.5 0
      vertex 66.5 -63.5 0
    endloop
  endfacet
  facet normal 0 0 -1
    outer loop
      vertex 66.5 -83.5 0
      vertex 86.5 -63.5 0
      vertex 86.5 -83.5 0
    endloop
  endfacet
  facet normal -0 0 -1
    outer loop
      vertex 86.5 -63.5 0
      vertex 66.5 -83.5 0
      vertex 66.5 -63.5 0
    endloop
  endfacet
  facet normal 0 -1 0
    outer loop
      vertex 66.5 -83.5 0
      vertex 86.5 -83.5 0.0999994
      vertex 66.5 -83.5 0.0999994
    endloop
  endfacet
  facet normal 0 -1 -0
    outer loop
      vertex 86.5 -83.5 0.0999994
      vertex 66.5 -83.5 0
      vertex 86.5 -83.5 0
    endloop
  endfacet
  facet normal -1 0 0
    outer loop
      vertex -83.5 -8.5 0
      vertex -83.5 11.5 0.0999994
      vertex -83.5 11.5 0
    endloop
  endfacet
  facet normal -1 -0 0
    outer loop
      vertex -83.5 11.5 0.0999994
      vertex -83.5 -8.5 0
      vertex -83.5 -8.5 0.0999994
    endloop
  endfacet
  facet normal -0 0 1
    outer loop
      vertex -83.5 11.5 0.0999994
      vertex -63.5 -8.5 0.0999994
      vertex -63.5 11.5 0.0999994
    endloop
  endfacet
  facet normal 0 0 1
    outer loop
      vertex -63.5 -8.5 0.0999994
      vertex -83.5 11.5 0.0999994
      vertex -83.5 -8.5 0.0999994
    endloop
  endfacet
  facet normal 1 -0 0
    outer loop
      vertex -63.5 -8.5 0.0999994
      vertex -63.5 11.5 0
      vertex -63.5 11.5 0.0999994
    endloop
  endfacet
  facet normal 1 0 0
    outer loop
      vertex -63.5 11.5 0
      vertex -63.5 -8.5 0.0999994
      vertex -63.5 -8.5 0
    endloop
  endfacet
  facet normal 0 1 -0
    outer loop
      vertex -63.5 11.5 0
      vertex -83.5 11.5 0.0999994
      vertex -63.5 11.5 0.0999994
    endloop
  endfacet
  facet normal 0 1 0
    outer loop
      vertex -83.5 11.5 0.0999994
      vertex -63.5 11.5 0
      vertex -83.5 11.5 0
    endloop
  endfacet
  facet normal 0 0 -1
    outer loop
      vertex -83.5 -8.5 0
      vertex -63.5 11.5 0
      vertex -63.5 -8.5 0
    endloop
  endfacet
  facet normal -0 0 -1
    outer loop
      vertex -63.5 11.5 0
      vertex -83.5 -8.5 0
      vertex -83.5 11.5 0
    endloop
  endfacet
  facet normal 0 -1 0
    outer loop
      vertex -83.5 -8.5 0
      vertex -63.5 -8.5 0.0999994
      vertex -83.5 -8.5 0.0999994
    endloop
  endfacet
  facet normal 0 -1 -0
    outer loop
      vertex -63.5 -8.5 0.0999994
      vertex -83.5 -8.5 0
      vertex -63.5 -8.5 0
    endloop
  endfacet
  facet normal -1 0 0
    outer loop
      vertex -8.5 -8.5 0
      vertex -8.5 11.5 0.0999994
      vertex -8.5 11.5 0
    endloop
  endfacet
  facet normal -1 -0 0
    outer loop
      vertex -8.5 11.5 0.0999994
      vertex -8.5 -8.5 0
      vertex -8.5 -8.5 0.0999994
    endloop
  endfacet
  facet normal -0 0 1
    outer loop
      vertex -8.5 11.5 0.0999994
      vertex 11.5 -8.5 0.0999994
      vertex 11.5 11.5 0.0999994
    endloop
  endfacet
  facet normal 0 0 1
    outer loop
      vertex 11.5 -8.5 0.0999994
      vertex -8.5 11.5 0.0999994
      vertex -8.5 -8.5 0.0999994
    endloop
  endfacet
  facet normal 1 -0 0
    outer loop
      vertex 11.5 -8.5 0.0999994
      vertex 11.5 11.5 0
      vertex 11.5 11.5 0.0999994
    endloop
  endfacet
  facet normal 1 0 0
    outer loop
      vertex 11.5 11.5 0
      vertex 11.5 -8.5 0.0999994
      vertex 11.5 -8.5 0
    endloop
  endfacet
  facet normal 0 1 -0
    outer loop
      vertex 11.5 11.5 0
      vertex -8.5 11.5 0.0999994
      vertex 11.5 11.5 0.0999994
    endloop
  endfacet
  facet normal 0 1 0
    outer loop
      vertex -8.5 11.5 0.0999994
      vertex 11.5 11.5 0
      vertex -8.5 11.5 0
    endloop
  endfacet
  facet normal 0 0 -1
    outer loop
      vertex -8.5 -8.5 0
      vertex 11.5 11.5 0
      vertex 11.5 -8.5 0
    endloop
  endfacet
  facet normal -0 0 -1
    outer loop
      vertex 11.5 11.5 0
      vertex -8.5 -8.5 0
      vertex -8.5 11.5 0
    endloop
  endfacet
  facet normal 0 -1 0
    outer loop
      vertex -8.5 -8.5 0
      vertex 11.5 -8.5 0.0999994
      vertex -8.5 -8.5 0.0999994
    endloop
  endfacet
  facet normal 0 -1 -0
    outer loop
      vertex 11.5 -8.5 0.0999994
      vertex -8.5 -8.5 0
      vertex 11.5 -8.5 0
    endloop
  endfacet
  facet normal -1 0 0
    outer loop
      vertex 66.5 -8.5 0
      vertex 66.5 11.5 0.0999994
      vertex 66.5 11.5 0
    endloop
  endfacet
  facet normal -1 -0 0
    outer loop
      vertex 66.5 11.5 0.0999994
      vertex 66.5 -8.5 0
      vertex 66.5 -8.5 0.0999994
    endloop
  endfacet
  facet normal -0 0 1
    outer loop
      vertex 66.5 11.5 0.0999994
      vertex 86.5 -8.5 0.0999994
      vertex 86.5 11.5 0.0999994
    endloop
  endfacet
  facet normal 0 0 1
    outer loop
      vertex 86.5 -8.5 0.0999994
      vertex 66.5 11.5 0.0999994
      vertex 66.5 -8.5 0.0999994
    endloop
  endfacet
  facet normal 1 -0 0
    outer loop
      vertex 86.5 -8.5 0.0999994
      vertex 86.5 11.5 0
      vertex 86.5 11.5 0.0999994
    endloop
  endfacet
  facet normal 1 0 0
    outer loop
      vertex 86.5 11.5 0
      vertex 86.5 -8.5 0.0999994
      vertex 86.5 -8.5 0
    endloop
  endfacet
  facet normal 0 1 -0
    outer loop
      vertex 86.5 11.5 0
      vertex 66.5 11.5 0.0999994
      vertex 86.5 11.5 0.0999994
    endloop
  endfacet
  facet normal 0 1 0
    outer loop
      vertex 66.5 11.5 0.0999994
      vertex 86.5 11.5 0
      vertex 66.5 11.5 0
    endloop
  endfacet
  facet normal 0 0 -1
    outer loop
      vertex 66.5 -8.5 0
      vertex 86.5 11.5 0
      vertex 86.5 -8.5 0
    endloop
  endfacet
  facet normal -0 0 -1
    outer loop
      vertex 86.5 11.5 0
      vertex 66.5 -8.5 0
      vertex 66.5 11.5 0
    endloop
  endfacet
  facet normal 0 -1 0
    outer loop
      vertex 66.5 -8.5 0
      vertex 86.5 -8.5 0.0999994
      vertex 66.5 -8.5 0.0999994
    endloop
  endfacet
  facet normal 0 -1 -0
    outer loop
      vertex 86.5 -8.5 0.0999994
      vertex 66.5 -8.5 0
      vertex 86.5 -8.5 0
    endloop
  endfacet
  facet normal -1 0 0
    outer loop
      vertex -83.5 66.5 0
      vertex -83.5 86.5 0.0999994
      vertex -83.5 86.5 0
    endloop
  endfacet
  facet normal -1 -0 0
    outer loop
      vertex -83.5 86.5 0.0999994
      vertex -83.5 66.5 0
      vertex -83.5 66.5 0.0999994
    endloop
  endfacet
  facet normal -0 0 1
    outer loop
      vertex -83.5 86.5 0.0999994
      vertex -63.5 66.5 0.0999994
      vertex -63.5 86.5 0.0999994
    endloop
  endfacet
  facet normal 0 0 1
    outer loop
      vertex -63.5 66.5 0.0999994
      vertex -83.5 86.5 0.0999994
      vertex -83.5 66.5 0.0999994
    endloop
  endfacet
  facet normal 1 -0 0
    outer loop
      vertex -63.5 66.5 0.0999994
      vertex -63.5 86.5 0
      vertex -63.5 86.5 0.0999994
    endloop
  endfacet
  facet normal 1 0 0
    outer loop
      vertex -63.5 86.5 0
      vertex -63.5 66.5 0.0999994
      vertex -63.5 66.5 0
    endloop
  endfacet
  facet normal 0 1 -0
    outer loop
      vertex -63.5 86.5 0
      vertex -83.5 86.5 0.0999994
      vertex -63.5 86.5 0.0999994
    endloop
  endfacet
  facet normal 0 1 0
    outer loop
      vertex -83.5 86.5 0.0999994
      vertex -63.5 86.5 0
      vertex -83.5 86.5 0
    endloop
  endfacet
  facet normal 0 0 -1
    outer loop
      vertex -83.5 66.5 0
      vertex -63.5 86.5 0
      vertex -63.5 66.5 0
    endloop
  endfacet
  facet normal -0 0 -1
    outer loop
      vertex -63.5 86.5 0
      vertex -83.5 66.5 0
      vertex -83.5 86.5 0
    endloop
  endfacet
  facet normal 0 -1 0
    outer loop
      vertex -83.5 66.5 0
      vertex -63.5 66.5 0.0999994
      vertex -83.5 66.5 0.0999994
    endloop
  endfacet
  facet normal 0 -1 -0
    outer loop
      vertex -63.5 66.5 0.0999994
      vertex -83.5 66.5 0
      vertex -63.5 66.5 0
    endloop
  endfacet
  facet normal -1 0 0
    outer loop
      vertex -8.5 66.5 0
      vertex -8.5 86.5 0.0999994
      vertex -8.5 86.5 0
    endloop
  endfacet
  facet normal -1 -0 0
    outer loop
      vertex -8.5 86.5 0.0999994
      vertex -8.5 66.5 0
      vertex -8.5 66.5 0.0999994
    endloop
  endfacet
  facet normal -0 0 1
    outer loop
      vertex -8.5 86.5 0.0999994
      vertex 11.5 66.5 0.0999994
      vertex 11.5 86.5 0.0999994
    endloop
  endfacet
  facet normal 0 0 1
    outer loop
      vertex 11.5 66.5 0.0999994
      vertex -8.5 86.5 0.0999994
      vertex -8.5 66.5 0.0999994
    endloop
  endfacet
  facet normal 1 -0 0
    outer loop
      vertex 11.5 66.5 0.0999994
      vertex 11.5 86.5 0
      vertex 11.5 86.5 0.0999994
    endloop
  endfacet
  facet normal 1 0 0
    outer loop
      vertex 11.5 86.5 0
      vertex 11.5 66.5 0.0999994
      vertex 11.5 66.5 0
    endloop
  endfacet
  facet normal 0 1 -0
    outer loop
      vertex 11.5 86.5 0
      vertex -8.5 86.5 0.0999994
      vertex 11.5 86.5 0.0999994
    endloop
  endfacet
  facet normal 0 1 0
    outer loop
      vertex -8.5 86.5 0.0999994
      vertex 11.5 86.5 0
      vertex -8.5 86.5 0
    endloop
  endfacet
  facet normal 0 0 -1
    outer loop
      vertex -8.5 66.5 0
      vertex 11.5 86.5 0
      vertex 11.5 66.5 0
    endloop
  endfacet
  facet normal -0 0 -1
    outer loop
      vertex 11.5 86.5 0
      vertex -8.5 66.5 0
      vertex -8.5 86.5 0
    endloop
  endfacet
  facet normal 0 -1 0
    outer loop
      vertex -8.5 66.5 0
      vertex 11.5 66.5 0.0999994
      vertex -8.5 66.5 0.0999994
    endloop
  endfacet
  facet normal 0 -1 -0
    outer loop
      vertex 11.5 66.5 0.0999994
      vertex -8.5 66.5 0
      vertex 11.5 66.5 0
    endloop
  endfacet
  facet normal -1 0 0
    outer loop
      vertex 66.5 66.5 0
      vertex 66.5 86.5 0.0999994
      vertex 66.5 86.5 0
    endloop
  endfacet
  facet normal -1 -0 0
    outer loop
      vertex 66.5 86.5 0.0999994
      vertex 66.5 66.5 0
      vertex 66.5 66.5 0.0999994
    endloop
  endfacet
  facet normal -0 0 1
    outer loop
      vertex 66.5 86.5 0.0999994
      vertex 86.5 66.5 0.0999994
      vertex 86.5 86.5 0.0999994
    endloop
  endfacet
  facet normal 0 0 1
    outer loop
      vertex 86.5 66.5 0.0999994
      vertex 66.5 86.5 0.0999994
      vertex 66.5 66.5 0.0999994
    endloop
  endfacet
  facet normal 1 -0 0
    outer loop
      vertex 86.5 66.5 0.0999994
      vertex 86.5 86.5 0
      vertex 86.5 86.5 0.0999994
    endloop
  endfacet
  facet normal 1 0 0
    outer loop
      vertex 86.5 86.5 0
      vertex 86.5 66.5 0.0999994
      vertex 86.5 66.5 0
    endloop
  endfacet
  facet normal 0 1 -0
    outer loop
      vertex 86.5 86.5 0
      vertex 66.5 86.5 0.0999994
      vertex 86.5 86.5 0.0999994
    endloop
  endfacet
  facet normal 0 1 0
    outer loop
      vertex 66.5 86.5 0.0999994
      vertex 86.5 86.5 0
      vertex 66.5 86.5 0
    endloop
  endfacet
  facet normal 0 0 -1
    outer loop
      vertex 66.5 66.5 0
      vertex 86.5 86.5 0
      vertex 86.5 66.5 0
    endloop
  endfacet
  facet normal -0 0 -1
    outer loop
      vertex 86.5 86.5 0
      vertex 66.5 66.5 0
      vertex 66.5 86.5 0
    endloop
  endfacet
  facet normal 0 -1 0
    outer loop
      vertex 66.5 66.5 0
      vertex 86.5 66.5 0.0999994
      vertex 66.5 66.5 0.0999994
    endloop
  endfacet
  facet normal 0 -1 -0
    outer loop
      vertex 86.5 66.5 0.0999994
      vertex 66.5 66.5 0
      vertex 86.5 66.5 0
    endloop
  endfacet
endsolid OpenSCAD_Model
