solid OpenSCAD_Model
  facet normal -1 -0 0
    outer loop
      vertex 45 77.2132 21.2132
      vertex 45 63.5 14.5711
      vertex 45 73.6777 24.7487
    endloop
  endfacet
  facet normal -1 0 0
    outer loop
      vertex 45 56 15
      vertex 45 63.5 14.5711
      vertex 45 56.4289 7.5
    endloop
  endfacet
  facet normal -1 0 0
    outer loop
      vertex 45 56 0
      vertex 45 63.5 14.5711
      vertex 45 77.2132 21.2132
    endloop
  endfacet
  facet normal -1 0 0
    outer loop
      vertex 45 63.5 14.5711
      vertex 45 56 0
      vertex 45 56.4289 7.5
    endloop
  endfacet
  facet normal -1 0 0
    outer loop
      vertex 45 56.4289 7.5
      vertex 45 56 0
      vertex 45 56 7.07107
    endloop
  endfacet
  facet normal -1 0 0
    outer loop
      vertex 45 56 15
      vertex 45 56.4289 7.5
      vertex 45 56 7.5
    endloop
  endfacet
  facet normal -1 0 0
    outer loop
      vertex 45 63.5 14.5711
      vertex 45 56 15
      vertex 45 63.5 15
    endloop
  endfacet
  facet normal 0 -0.707107 0.707107
    outer loop
      vertex 45 73.6777 24.7487
      vertex 60 63.5 14.5711
      vertex 60 73.6777 24.7487
    endloop
  endfacet
  facet normal 0 -0.707107 0.707107
    outer loop
      vertex 60 63.5 14.5711
      vertex 45 73.6777 24.7487
      vertex 45 63.5 14.5711
    endloop
  endfacet
  facet normal 0 -0.707107 0.707107
    outer loop
      vertex 45 56 7.07107
      vertex 60 56.4289 7.5
      vertex 45 56.4289 7.5
    endloop
  endfacet
  facet normal 0 -0.707107 0.707107
    outer loop
      vertex 60 56.4289 7.5
      vertex 45 56 7.07107
      vertex 60 56 7.07107
    endloop
  endfacet
  facet normal 1 -0 0
    outer loop
      vertex 60 56 15
      vertex 60 63.5 14.5711
      vertex 60 63.5 15
    endloop
  endfacet
  facet normal 1 0 0
    outer loop
      vertex 60 63.5 14.5711
      vertex 60 56 15
      vertex 60 56.4289 7.5
    endloop
  endfacet
  facet normal 1 0 0
    outer loop
      vertex 60 56.4289 7.5
      vertex 60 56 15
      vertex 60 56 7.5
    endloop
  endfacet
  facet normal 1 0 0
    outer loop
      vertex 60 63.5 14.5711
      vertex 60 77.2132 21.2132
      vertex 60 73.6777 24.7487
    endloop
  endfacet
  facet normal 1 0 0
    outer loop
      vertex 60 56 0
      vertex 60 63.5 14.5711
      vertex 60 56.4289 7.5
    endloop
  endfacet
  facet normal 1 0 0
    outer loop
      vertex 60 56 0
      vertex 60 56.4289 7.5
      vertex 60 56 7.07107
    endloop
  endfacet
  facet normal 1 -0 0
    outer loop
      vertex 60 63.5 14.5711
      vertex 60 56 0
      vertex 60 77.2132 21.2132
    endloop
  endfacet
  facet normal 0 0.707107 0.707106
    outer loop
      vertex 60 77.2132 21.2132
      vertex 45 73.6777 24.7487
      vertex 60 73.6777 24.7487
    endloop
  endfacet
  facet normal 0 0.707107 0.707106
    outer loop
      vertex 45 73.6777 24.7487
      vertex 60 77.2132 21.2132
      vertex 45 77.2132 21.2132
    endloop
  endfacet
  facet normal 0 0.707107 -0.707107
    outer loop
      vertex 60 56 0
      vertex 45 77.2132 21.2132
      vertex 60 77.2132 21.2132
    endloop
  endfacet
  facet normal 0 0.707107 -0.707107
    outer loop
      vertex 45 77.2132 21.2132
      vertex 60 56 0
      vertex 45 56 0
    endloop
  endfacet
  facet normal 0 1 0
    outer loop
      vertex 105 56 15
      vertex 60 56 7.5
      vertex 60 56 15
    endloop
  endfacet
  facet normal 0 1 0
    outer loop
      vertex 60 56 7.5
      vertex 60 56 7.07107
      vertex 45 56 7.5
    endloop
  endfacet
  facet normal 0 1 0
    outer loop
      vertex 105 56 15
      vertex 60 56 7.07107
      vertex 60 56 7.5
    endloop
  endfacet
  facet normal 0 1 -0
    outer loop
      vertex 105 56 0
      vertex 60 56 7.07107
      vertex 105 56 15
    endloop
  endfacet
  facet normal 0 1 0
    outer loop
      vertex 60 56 7.07107
      vertex 105 56 0
      vertex 60 56 0
    endloop
  endfacet
  facet normal 0 1 -0
    outer loop
      vertex 45 56 7.5
      vertex 0 56 15
      vertex 45 56 15
    endloop
  endfacet
  facet normal 0 1 0
    outer loop
      vertex 45 56 7.07107
      vertex 45 56 7.5
      vertex 60 56 7.07107
    endloop
  endfacet
  facet normal 0 1 -0
    outer loop
      vertex 45 56 7.07107
      vertex 0 56 15
      vertex 45 56 7.5
    endloop
  endfacet
  facet normal 0 1 0
    outer loop
      vertex 0 56 0
      vertex 45 56 7.07107
      vertex 45 56 0
    endloop
  endfacet
  facet normal 0 1 0
    outer loop
      vertex 45 56 7.07107
      vertex 0 56 0
      vertex 0 56 15
    endloop
  endfacet
  facet normal 0 0 1
    outer loop
      vertex 60 63.5 15
      vertex 54 53.5 15
      vertex 60 56 15
    endloop
  endfacet
  facet normal 0 0 1
    outer loop
      vertex 54 53.5 15
      vertex 51 53.5 15
      vertex 54 2.5 15
    endloop
  endfacet
  facet normal 0 0 1
    outer loop
      vertex 60 63.5 15
      vertex 51 53.5 15
      vertex 54 53.5 15
    endloop
  endfacet
  facet normal -0 0 1
    outer loop
      vertex 45 63.5 15
      vertex 51 53.5 15
      vertex 60 63.5 15
    endloop
  endfacet
  facet normal -0 0 1
    outer loop
      vertex 45 56 15
      vertex 51 53.5 15
      vertex 45 63.5 15
    endloop
  endfacet
  facet normal 0 0 1
    outer loop
      vertex 0 53.5 15
      vertex 45 56 15
      vertex 0 56 15
    endloop
  endfacet
  facet normal 0 0 1
    outer loop
      vertex 45 56 15
      vertex 0 53.5 15
      vertex 51 53.5 15
    endloop
  endfacet
  facet normal -0 0 1
    outer loop
      vertex 60 56 15
      vertex 105 53.5 15
      vertex 105 56 15
    endloop
  endfacet
  facet normal 0 0 1
    outer loop
      vertex 105 53.5 15
      vertex 60 56 15
      vertex 54 53.5 15
    endloop
  endfacet
  facet normal -0 0 1
    outer loop
      vertex 54 2.5 15
      vertex 105 0 15
      vertex 105 2.5 15
    endloop
  endfacet
  facet normal 0 0 1
    outer loop
      vertex 51 2.5 15
      vertex 54 2.5 15
      vertex 51 53.5 15
    endloop
  endfacet
  facet normal -0 0 1
    outer loop
      vertex 51 2.5 15
      vertex 105 0 15
      vertex 54 2.5 15
    endloop
  endfacet
  facet normal 0 0 1
    outer loop
      vertex 0 0 15
      vertex 51 2.5 15
      vertex 0 2.5 15
    endloop
  endfacet
  facet normal 0 0 1
    outer loop
      vertex 51 2.5 15
      vertex 0 0 15
      vertex 105 0 15
    endloop
  endfacet
  facet normal 0 1 -0
    outer loop
      vertex 60 63.5 14.5711
      vertex 45 63.5 15
      vertex 60 63.5 15
    endloop
  endfacet
  facet normal 0 1 0
    outer loop
      vertex 45 63.5 15
      vertex 60 63.5 14.5711
      vertex 45 63.5 14.5711
    endloop
  endfacet
  facet normal 0 0 -1
    outer loop
      vertex 45 56 7.5
      vertex 60 56.4289 7.5
      vertex 60 56 7.5
    endloop
  endfacet
  facet normal -0 0 -1
    outer loop
      vertex 60 56.4289 7.5
      vertex 45 56 7.5
      vertex 45 56.4289 7.5
    endloop
  endfacet
  facet normal -1 0 0
    outer loop
      vertex 0 0 0
      vertex 0 2.5 15
      vertex 0 2.5 0
    endloop
  endfacet
  facet normal -1 -0 0
    outer loop
      vertex 0 2.5 15
      vertex 0 0 0
      vertex 0 0 15
    endloop
  endfacet
  facet normal 1 -0 0
    outer loop
      vertex 105 0 15
      vertex 105 2.5 0
      vertex 105 2.5 15
    endloop
  endfacet
  facet normal 1 0 0
    outer loop
      vertex 105 2.5 0
      vertex 105 0 15
      vertex 105 0 0
    endloop
  endfacet
  facet normal 0 0 -1
    outer loop
      vertex 105 0 0
      vertex 54 2.5 0
      vertex 105 2.5 0
    endloop
  endfacet
  facet normal 0 0 -1
    outer loop
      vertex 54 2.5 0
      vertex 51 2.5 0
      vertex 54 53.5 0
    endloop
  endfacet
  facet normal 0 0 -1
    outer loop
      vertex 105 0 0
      vertex 51 2.5 0
      vertex 54 2.5 0
    endloop
  endfacet
  facet normal 0 0 -1
    outer loop
      vertex 0 0 0
      vertex 51 2.5 0
      vertex 105 0 0
    endloop
  endfacet
  facet normal -0 0 -1
    outer loop
      vertex 51 2.5 0
      vertex 0 0 0
      vertex 0 2.5 0
    endloop
  endfacet
  facet normal 0 0 -1
    outer loop
      vertex 105 53.5 0
      vertex 60 56 0
      vertex 105 56 0
    endloop
  endfacet
  facet normal 0 0 -1
    outer loop
      vertex 54 53.5 0
      vertex 60 56 0
      vertex 105 53.5 0
    endloop
  endfacet
  facet normal 0 0 -1
    outer loop
      vertex 51 53.5 0
      vertex 54 53.5 0
      vertex 51 2.5 0
    endloop
  endfacet
  facet normal 0 0 -1
    outer loop
      vertex 51 53.5 0
      vertex 60 56 0
      vertex 54 53.5 0
    endloop
  endfacet
  facet normal 0 0 -1
    outer loop
      vertex 51 53.5 0
      vertex 45 56 0
      vertex 60 56 0
    endloop
  endfacet
  facet normal 0 0 -1
    outer loop
      vertex 0 53.5 0
      vertex 45 56 0
      vertex 51 53.5 0
    endloop
  endfacet
  facet normal -0 0 -1
    outer loop
      vertex 45 56 0
      vertex 0 53.5 0
      vertex 0 56 0
    endloop
  endfacet
  facet normal 0 -1 0
    outer loop
      vertex 0 0 0
      vertex 105 0 15
      vertex 0 0 15
    endloop
  endfacet
  facet normal 0 -1 -0
    outer loop
      vertex 105 0 15
      vertex 0 0 0
      vertex 105 0 0
    endloop
  endfacet
  facet normal 0 1 -0
    outer loop
      vertex 51 2.5 0
      vertex 0 2.5 15
      vertex 51 2.5 15
    endloop
  endfacet
  facet normal 0 1 0
    outer loop
      vertex 0 2.5 15
      vertex 51 2.5 0
      vertex 0 2.5 0
    endloop
  endfacet
  facet normal 0 1 -0
    outer loop
      vertex 105 2.5 0
      vertex 54 2.5 15
      vertex 105 2.5 15
    endloop
  endfacet
  facet normal 0 1 0
    outer loop
      vertex 54 2.5 15
      vertex 105 2.5 0
      vertex 54 2.5 0
    endloop
  endfacet
  facet normal -1 0 0
    outer loop
      vertex 51 2.5 0
      vertex 51 53.5 15
      vertex 51 53.5 0
    endloop
  endfacet
  facet normal -1 -0 0
    outer loop
      vertex 51 53.5 15
      vertex 51 2.5 0
      vertex 51 2.5 15
    endloop
  endfacet
  facet normal 1 -0 0
    outer loop
      vertex 54 2.5 15
      vertex 54 53.5 0
      vertex 54 53.5 15
    endloop
  endfacet
  facet normal 1 0 0
    outer loop
      vertex 54 53.5 0
      vertex 54 2.5 15
      vertex 54 2.5 0
    endloop
  endfacet
  facet normal 0 -1 0
    outer loop
      vertex 0 53.5 0
      vertex 51 53.5 15
      vertex 0 53.5 15
    endloop
  endfacet
  facet normal 0 -1 -0
    outer loop
      vertex 51 53.5 15
      vertex 0 53.5 0
      vertex 51 53.5 0
    endloop
  endfacet
  facet normal 0 -1 0
    outer loop
      vertex 54 53.5 0
      vertex 105 53.5 15
      vertex 54 53.5 15
    endloop
  endfacet
  facet normal 0 -1 -0
    outer loop
      vertex 105 53.5 15
      vertex 54 53.5 0
      vertex 105 53.5 0
    endloop
  endfacet
  facet normal -1 0 0
    outer loop
      vertex 0 53.5 0
      vertex 0 56 15
      vertex 0 56 0
    endloop
  endfacet
  facet normal -1 -0 0
    outer loop
      vertex 0 56 15
      vertex 0 53.5 0
      vertex 0 53.5 15
    endloop
  endfacet
  facet normal 1 -0 0
    outer loop
      vertex 105 53.5 15
      vertex 105 56 0
      vertex 105 56 15
    endloop
  endfacet
  facet normal 1 0 0
    outer loop
      vertex 105 56 0
      vertex 105 53.5 15
      vertex 105 53.5 0
    endloop
  endfacet
endsolid OpenSCAD_Model
